<svg width="158" height="168" viewBox="0 0 158 168" fill="none" xmlns="http://www.w3.org/2000/svg">
<path opacity="0.6" d="M11.6767 81.6809V138.734C11.6765 138.74 11.6745 138.746 11.671 138.751C11.6675 138.756 11.6626 138.76 11.6569 138.762C11.6512 138.764 11.645 138.765 11.639 138.763C11.633 138.762 11.6275 138.759 11.6232 138.755C11.0014 138.107 10.3888 137.451 9.78517 136.788C3.4335 129.677 -0.0531685 120.462 0.000640294 110.928V81.91C-0.0215011 80.395 0.53131 78.9278 1.54772 77.8041C2.56414 76.6803 3.96864 75.9836 5.4783 75.854C6.27379 75.8048 7.07097 75.919 7.82065 76.1896C8.57032 76.4602 9.25665 76.8814 9.83735 77.4273C10.418 77.9732 10.8808 78.6322 11.1972 79.3638C11.5135 80.0953 11.6767 80.8839 11.6767 81.6809ZM30.8954 95.7571C30.2043 95.3184 29.5197 94.8706 28.8414 94.4137L28.8232 94.4036C27.7852 94.0029 26.6536 93.91 25.5641 94.1361C24.2221 94.4482 23.0275 95.2108 22.1795 96.2968C21.3315 97.3828 20.8813 98.7266 20.904 100.104V147.178C20.904 147.191 20.9069 147.203 20.9125 147.215C20.9181 147.226 20.9262 147.236 20.9363 147.244C24.5751 150.141 28.4249 152.762 32.4538 155.086C32.4666 155.093 32.4811 155.097 32.4959 155.097C32.5107 155.097 32.5252 155.094 32.538 155.086C32.5508 155.079 32.5615 155.068 32.5688 155.055C32.5762 155.042 32.5801 155.028 32.58 155.013V99.8489C32.5816 98.3219 31.9827 96.8555 30.9126 95.7662L30.8954 95.7571ZM47.284 104.777C45.7744 104.906 44.37 105.603 43.3538 106.727C42.3375 107.85 41.785 109.318 41.8074 110.833V159.779C41.8074 159.785 41.8091 159.791 41.8123 159.796C41.8155 159.801 41.8201 159.805 41.8255 159.808C45.6014 161.45 49.4824 162.838 53.4429 163.964C53.4476 163.965 53.4526 163.966 53.4575 163.965C53.4623 163.964 53.4669 163.962 53.4708 163.959C53.4748 163.956 53.4779 163.952 53.4801 163.948C53.4822 163.943 53.4834 163.939 53.4833 163.934V110.603C53.4832 109.806 53.3199 109.018 53.0034 108.286C52.687 107.555 52.2241 106.896 51.6433 106.35C51.0625 105.804 50.3762 105.383 49.6264 105.112C48.8767 104.842 48.0795 104.727 47.284 104.777ZM68.1995 109.33C66.6898 109.459 65.2853 110.156 64.2689 111.28C63.2525 112.403 62.6997 113.871 62.7218 115.386V166.061C62.7219 166.069 62.7245 166.076 62.7293 166.082C62.7341 166.087 62.7407 166.091 62.748 166.093C66.5896 166.768 70.4696 167.202 74.3654 167.393C74.3696 167.393 74.3738 167.392 74.3778 167.391C74.3817 167.389 74.3852 167.387 74.3882 167.384C74.3912 167.381 74.3936 167.377 74.3953 167.374C74.3969 167.37 74.3978 167.366 74.3978 167.361V115.158C74.3978 114.36 74.2346 113.572 73.9182 112.84C73.6019 112.109 73.1392 111.45 72.5585 110.904C71.9778 110.358 71.2915 109.936 70.5418 109.666C69.7921 109.395 68.995 109.281 68.1995 109.33ZM89.1018 109.33C87.5923 109.459 86.188 110.156 85.1718 111.28C84.1556 112.404 83.6029 113.871 83.6251 115.386V167.366C83.6252 167.371 83.6262 167.375 83.6279 167.379C83.6297 167.383 83.6322 167.386 83.6353 167.389C83.6384 167.392 83.642 167.394 83.646 167.396C83.6499 167.397 83.6542 167.398 83.6584 167.398C87.554 167.206 91.4337 166.77 95.2748 166.094C95.2821 166.092 95.2888 166.088 95.2936 166.083C95.2983 166.077 95.301 166.07 95.3011 166.062V115.158C95.3009 114.36 95.1376 113.572 94.8212 112.84C94.5047 112.109 94.0419 111.45 93.4612 110.904C92.8804 110.358 92.194 109.936 91.4443 109.666C90.6946 109.395 89.8974 109.281 89.1018 109.33ZM109.995 104.777C108.485 104.906 107.081 105.603 106.065 106.727C105.049 107.85 104.496 109.318 104.518 110.833V163.932C104.518 163.936 104.519 163.941 104.522 163.945C104.524 163.95 104.527 163.954 104.531 163.956C104.534 163.959 104.539 163.961 104.543 163.962C104.548 163.963 104.553 163.963 104.558 163.962C108.518 162.836 112.398 161.447 116.173 159.803C116.179 159.801 116.184 159.797 116.187 159.792C116.19 159.787 116.192 159.781 116.192 159.775V110.6C116.192 109.804 116.028 109.015 115.712 108.284C115.395 107.553 114.932 106.894 114.351 106.349C113.77 105.803 113.084 105.382 112.335 105.112C111.585 104.841 110.788 104.727 109.993 104.777H109.995ZM132.476 94.1442C131.372 93.9073 130.224 93.9986 129.171 94.4066H129.164C128.483 94.8662 127.795 95.3164 127.1 95.7571L127.094 95.7622C126.02 96.8515 125.419 98.3202 125.421 99.85V155.11C125.421 155.116 125.422 155.121 125.425 155.126C125.428 155.131 125.432 155.135 125.436 155.138C125.441 155.14 125.447 155.142 125.452 155.142C125.458 155.142 125.463 155.14 125.468 155.137C129.533 152.799 133.417 150.157 137.085 147.234C137.089 147.232 137.092 147.228 137.094 147.224C137.096 147.219 137.097 147.215 137.097 147.21V100.063C137.115 98.6974 136.667 97.3663 135.827 96.2901C134.986 95.2138 133.803 94.4567 132.474 94.1442H132.476ZM151.801 75.854C150.291 75.9836 148.887 76.6804 147.87 77.8041C146.854 78.9279 146.302 80.3951 146.324 81.91V138.809C146.744 138.372 147.164 137.934 147.576 137.488C154.269 130.256 157.991 120.767 158 110.912V81.6809C158 80.8836 157.836 80.0949 157.52 79.3632C157.203 78.6315 156.74 77.9724 156.159 77.4265C155.578 76.8806 154.892 76.4594 154.142 76.189C153.392 75.9185 152.594 75.8046 151.799 75.854H151.801Z" fill="white"/>
<path d="M78.9993 57.7983C95.1749 57.7929 111.052 62.1532 124.956 70.4195C138.86 78.6857 150.276 90.5513 157.998 104.765V56.5992C157.989 46.7445 154.267 37.2551 147.574 30.0224C138.78 20.4967 128.099 12.9076 116.211 7.73875C104.322 2.5699 91.487 -0.0652454 78.5236 0.00122696C65.5601 0.0676993 52.7528 2.83433 40.9178 8.12482C29.0829 13.4153 18.48 21.1136 9.78514 30.7289C3.43329 37.8388 -0.0534211 47.0533 0.000618881 56.5871V104.77C7.72228 90.5555 19.1373 78.6888 33.0414 70.4216C46.9455 62.1545 62.8231 57.7934 78.9993 57.7983Z" fill="white"/>
</svg>
