<svg width="22" height="22" viewBox="0 0 22 22" fill="none" xmlns="http://www.w3.org/2000/svg">
<path fill-rule="evenodd" clip-rule="evenodd" d="M18.2236 1.10051L10.799 8.52513L3.37437 1.10051C2.69007 0.416203 1.58256 0.41744 0.899495 1.10051C0.21643 1.78357 0.215192 2.89108 0.899495 3.57538L8.32412 11L0.899495 18.4246C0.21643 19.1077 0.215192 20.2152 0.899495 20.8995C1.5838 21.5838 2.6913 21.5826 3.37437 20.8995L10.799 13.4749L18.2236 20.8995C18.9079 21.5838 20.0154 21.5826 20.6985 20.8995C21.3815 20.2164 21.3828 19.1089 20.6985 18.4246L13.2739 11L20.6985 3.57538C21.3815 2.89231 21.3828 1.78481 20.6985 1.10051C20.0142 0.416203 18.9067 0.41744 18.2236 1.10051Z" fill="#1C1B40"/>
</svg>
