<svg width="28" height="28" viewBox="0 0 28 28" fill="none" xmlns="http://www.w3.org/2000/svg">
<g clip-path="url(#clip0_2957_650)">
<path d="M27.5898 14C27.5898 6.49453 21.5055 0.410158 14 0.410158C6.49452 0.410158 0.410156 6.49453 0.410156 14C0.410156 21.5055 6.49452 27.5898 14 27.5898C21.5055 27.5898 27.5898 21.5055 27.5898 14Z" stroke="white" stroke-miterlimit="10" stroke-linecap="round" stroke-linejoin="round"/>
<path d="M16.1921 12.246V10.4925C16.1921 9.76613 16.7809 9.17731 17.5073 9.17731H19.2608C19.5029 9.17731 19.6992 8.98104 19.6992 8.73894V6.10863C19.6992 5.86653 19.5029 5.67026 19.2608 5.67026H16.6305C13.9673 5.67026 11.8083 7.82921 11.8083 10.4925V13.9995H8.73964C8.49754 13.9995 8.30127 14.1958 8.30127 14.4379V17.0682C8.30127 17.3103 8.49754 17.5065 8.73964 17.5065H11.8083V25.3975" stroke="white" stroke-miterlimit="10" stroke-linecap="round" stroke-linejoin="round"/>
<path d="M16.1919 27.1514V17.507H18.4799C18.6811 17.507 18.8564 17.3701 18.9052 17.1749L19.5628 14.5446C19.632 14.2679 19.4227 13.9999 19.1375 13.9999H16.1919" stroke="white" stroke-miterlimit="10" stroke-linecap="round" stroke-linejoin="round"/>
</g>
<defs>
<clipPath id="clip0_2957_650">
<rect width="28" height="28" fill="white"/>
</clipPath>
</defs>
</svg>
