<svg width="32" height="33" viewBox="0 0 32 33" fill="none" xmlns="http://www.w3.org/2000/svg">
<g clip-path="url(#clip0_55_2150)">
<rect y="0.5" width="32" height="32" rx="1" fill="#212121"/>
<g clip-path="url(#clip1_55_2150)">
<path d="M21.3183 4.5772C22.5359 4.63277 23.3776 4.81169 24.1565 5.11441C24.9358 5.41726 25.5259 5.80118 26.1124 6.38767C26.6988 6.97415 27.0827 7.56422 27.3857 8.34362C27.6884 9.12264 27.8672 9.96418 27.9228 11.1817C27.9916 12.6917 28 13.2239 28 16.5C28 19.7761 27.9916 20.3083 27.9228 21.8183C27.8672 23.0358 27.6884 23.8774 27.3856 24.6566C27.0827 25.4358 26.6988 26.0259 26.1124 26.6123C25.526 27.1988 24.9358 27.5827 24.1564 27.8856C23.3772 28.1884 22.5357 28.3672 21.3183 28.4227C19.8087 28.4916 19.2766 28.5 16 28.5C12.7234 28.5 12.1913 28.4916 10.6817 28.4227C9.46426 28.3672 8.62271 28.1884 7.84342 27.8856C7.06417 27.5827 6.47399 27.1988 5.88763 26.6123C5.30117 26.0259 4.91722 25.4357 4.61432 24.6564C4.31164 23.8774 4.13277 23.0358 4.0772 21.8183C4.00835 20.3093 4 19.7775 4 16.5C4 13.2225 4.00835 12.6907 4.0772 11.1817C4.13277 9.96418 4.31164 9.12264 4.61436 8.3435C4.91719 7.5643 5.30114 6.97416 5.88757 6.38773C6.47399 5.80124 7.06417 5.4173 7.84345 5.11441C8.62236 4.8117 9.46409 4.63277 10.6816 4.5772C12.1907 4.50835 12.7225 4.5 16 4.5C19.2775 4.5 19.8093 4.50835 21.3183 4.5772ZM16 7.16667C12.7596 7.16667 12.264 7.17445 10.8032 7.2411C9.87615 7.28341 9.31952 7.40173 8.80948 7.59996C8.37398 7.76922 8.09726 7.94924 7.77324 8.27329C7.44916 8.59737 7.26913 8.87409 7.09996 9.30937C6.9017 9.81966 6.78341 10.3762 6.7411 11.3032C6.67445 12.764 6.66667 13.2596 6.66667 16.5C6.66667 19.7404 6.67445 20.236 6.7411 21.6968C6.78341 22.6238 6.9017 23.1803 7.0999 23.6905C7.26914 24.1259 7.4492 24.4027 7.7733 24.7268C8.09726 25.0508 8.37398 25.2308 8.80933 25.4C9.31972 25.5983 9.87621 25.7166 10.8032 25.7589C12.2646 25.8255 12.7605 25.8333 16 25.8333C19.2395 25.8333 19.7354 25.8255 21.1968 25.7588C22.1238 25.7166 22.6802 25.5983 23.1905 25.4C23.626 25.2308 23.9027 25.0508 24.2268 24.7267C24.5508 24.4027 24.7308 24.1259 24.9 23.6906C25.0983 23.1803 25.2166 22.6238 25.2589 21.6968C25.3255 20.2351 25.3333 19.739 25.3333 16.5C25.3333 13.261 25.3255 12.7649 25.2589 11.3032C25.2166 10.3762 25.0983 9.81966 24.9001 9.30958C24.7308 8.87404 24.5508 8.59729 24.2268 8.27324C23.9028 7.94925 23.626 7.76923 23.1905 7.59997C22.6804 7.40172 22.1238 7.28341 21.1968 7.2411C19.736 7.17445 19.2404 7.16667 16 7.16667ZM16 22.7222C12.5636 22.7222 9.77778 19.9364 9.77778 16.5C9.77778 13.0636 12.5636 10.2778 16 10.2778C19.4364 10.2778 22.2222 13.0636 22.2222 16.5C22.2222 19.9364 19.4364 22.7222 16 22.7222ZM16 20.0556C17.9637 20.0556 19.5556 18.4637 19.5556 16.5C19.5556 14.5363 17.9637 12.9444 16 12.9444C14.0363 12.9444 12.4444 14.5363 12.4444 16.5C12.4444 18.4637 14.0363 20.0556 16 20.0556ZM22.2222 11.6111C21.4858 11.6111 20.8889 11.0142 20.8889 10.2778C20.8889 9.5414 21.4858 8.94444 22.2222 8.94444C22.9586 8.94444 23.5556 9.5414 23.5556 10.2778C23.5556 11.0142 22.9586 11.6111 22.2222 11.6111Z" fill="white"/>
</g>
</g>
<defs>
<clipPath id="clip0_55_2150">
<rect width="32" height="32" fill="white" transform="translate(0 0.5)"/>
</clipPath>
<clipPath id="clip1_55_2150">
<rect width="24" height="24" fill="white" transform="translate(4 4.5)"/>
</clipPath>
</defs>
</svg>
