<svg width="28" height="28" viewBox="0 0 28 28" fill="none" xmlns="http://www.w3.org/2000/svg">
<g clip-path="url(#clip0_2957_555)">
<path d="M14 0C6.2681 0 0 6.2681 0 14C0 21.7319 6.2681 28 14 28C21.7319 28 28 21.7319 28 14C27.9913 6.27174 21.7283 0.00865888 14 0ZM14 27.0667C6.78353 27.0667 0.933333 21.2165 0.933333 14C0.933333 6.78353 6.78353 0.933333 14 0.933333C21.2165 0.933333 27.0667 6.78353 27.0667 14C27.0585 21.2131 21.2131 27.0585 14 27.0667Z" fill="white"/>
<path d="M20.0668 5.59961H7.93343C6.64531 5.6012 5.60169 6.64482 5.6001 7.93294V20.0663C5.60169 21.3544 6.64531 22.398 7.93343 22.3996H20.0668C21.3549 22.398 22.3985 21.3544 22.4001 20.0663V7.93294C22.3985 6.64482 21.3549 5.6012 20.0668 5.59961ZM21.4668 20.0663C21.4668 20.8394 20.8399 21.4663 20.0668 21.4663H7.93343C7.16029 21.4663 6.53343 20.8394 6.53343 20.0663V7.93294C6.53343 7.1598 7.16029 6.53294 7.93343 6.53294H20.0668C20.8399 6.53294 21.4668 7.1598 21.4668 7.93294V20.0663Z" fill="white"/>
<path d="M14.0002 9.33301C11.4228 9.33301 9.3335 11.4223 9.3335 13.9997C9.3335 16.5771 11.4228 18.6663 14.0002 18.6663C16.5775 18.6663 18.6668 16.5771 18.6668 13.9997C18.6641 11.4234 16.5764 9.33574 14.0002 9.33301ZM14.0002 17.733C11.9382 17.733 10.2668 16.0616 10.2668 13.9997C10.2668 11.9377 11.9382 10.2663 14.0002 10.2663C16.0621 10.2663 17.7335 11.9377 17.7335 13.9997C17.7312 16.0605 16.061 17.7307 14.0002 17.733Z" fill="white"/>
<path d="M19.1334 7.4668C18.3603 7.4668 17.7334 8.09365 17.7334 8.8668C17.7334 9.63994 18.3603 10.2668 19.1334 10.2668C19.9065 10.2668 20.5334 9.63994 20.5334 8.8668C20.5334 8.09365 19.9065 7.4668 19.1334 7.4668ZM19.1334 9.33346C18.8757 9.33346 18.6667 9.12451 18.6667 8.8668C18.6667 8.60908 18.8757 8.40013 19.1334 8.40013C19.3911 8.40013 19.6001 8.60908 19.6001 8.8668C19.6001 9.12451 19.3911 9.33346 19.1334 9.33346Z" fill="white"/>
</g>
<defs>
<clipPath id="clip0_2957_555">
<rect width="28" height="28" fill="white"/>
</clipPath>
</defs>
</svg>
