<svg width="42" height="42" viewBox="0 0 42 42" fill="none" xmlns="http://www.w3.org/2000/svg">
<g clip-path="url(#clip0_112_26)">
<path d="M29.488 0H12.512C5.61287 0 0 5.61287 0 12.512V29.488C0 36.3871 5.61287 42 12.512 42H29.488C36.3871 42 42 36.3871 42 29.488V12.512C41.9999 5.61287 36.3871 0 29.488 0ZM37.7748 29.488C37.7748 34.0646 34.0646 37.7748 29.488 37.7748H12.512C7.93538 37.7748 4.2252 34.0646 4.2252 29.488V12.512C4.2252 7.9353 7.93538 4.2252 12.512 4.2252H29.488C34.0646 4.2252 37.7748 7.9353 37.7748 12.512V29.488Z" fill="url(#paint0_linear_112_26)"/>
<path d="M20.9994 10.1377C15.0097 10.1377 10.1367 15.0107 10.1367 21.0003C10.1367 26.9899 15.0097 31.863 20.9994 31.863C26.9891 31.863 31.8621 26.99 31.8621 21.0003C31.8621 15.0106 26.9891 10.1377 20.9994 10.1377ZM20.9994 27.6379C17.3336 27.6379 14.3619 24.6662 14.3619 21.0004C14.3619 17.3346 17.3337 14.3629 20.9994 14.3629C24.6652 14.3629 27.6369 17.3346 27.6369 21.0004C27.6369 24.6661 24.6652 27.6379 20.9994 27.6379Z" fill="url(#paint1_linear_112_26)"/>
<path d="M31.8842 12.8221C33.3217 12.8221 34.4871 11.6567 34.4871 10.2191C34.4871 8.78158 33.3217 7.61621 31.8842 7.61621C30.4466 7.61621 29.2812 8.78158 29.2812 10.2191C29.2812 11.6567 30.4466 12.8221 31.8842 12.8221Z" fill="url(#paint2_linear_112_26)"/>
</g>
<defs>
<linearGradient id="paint0_linear_112_26" x1="21" y1="41.8777" x2="21" y2="0.326221" gradientUnits="userSpaceOnUse">
<stop stop-color="#E09B3D"/>
<stop offset="0.3" stop-color="#C74C4D"/>
<stop offset="0.6" stop-color="#C21975"/>
<stop offset="1" stop-color="#7024C4"/>
</linearGradient>
<linearGradient id="paint1_linear_112_26" x1="20.9994" y1="41.8781" x2="20.9994" y2="0.326614" gradientUnits="userSpaceOnUse">
<stop stop-color="#E09B3D"/>
<stop offset="0.3" stop-color="#C74C4D"/>
<stop offset="0.6" stop-color="#C21975"/>
<stop offset="1" stop-color="#7024C4"/>
</linearGradient>
<linearGradient id="paint2_linear_112_26" x1="31.8842" y1="41.878" x2="31.8842" y2="0.326498" gradientUnits="userSpaceOnUse">
<stop stop-color="#E09B3D"/>
<stop offset="0.3" stop-color="#C74C4D"/>
<stop offset="0.6" stop-color="#C21975"/>
<stop offset="1" stop-color="#7024C4"/>
</linearGradient>
<clipPath id="clip0_112_26">
<rect width="42" height="42" fill="white"/>
</clipPath>
</defs>
</svg>
