<svg width="28" height="28" viewBox="0 0 28 28" fill="none" xmlns="http://www.w3.org/2000/svg">
<g clip-path="url(#clip0_2957_694)">
<path d="M23.8995 4.10058C21.2552 1.45622 17.7395 0 14 0C10.2605 0 6.74477 1.45622 4.10052 4.10058C1.45622 6.74477 0 10.2605 0 14C0 17.7395 1.45622 21.2552 4.10052 23.8995C6.74477 26.5438 10.2605 28 14 28C17.7395 28 21.2552 26.5438 23.8995 23.8994C26.5438 21.2552 28 17.7395 28 14C28 10.2605 26.5438 6.74477 23.8995 4.10058ZM14 27.1158C6.76791 27.1158 0.884187 21.2321 0.884187 14C0.884187 6.76791 6.76791 0.884187 14 0.884187C21.2321 0.884187 27.1158 6.76791 27.1158 14C27.1158 21.2321 21.2321 27.1158 14 27.1158Z" fill="white"/>
<path d="M9.87385 11.2002H6.92647C6.68229 11.2002 6.48438 11.3981 6.48438 11.6423V20.4844C6.48438 20.7286 6.68234 20.9265 6.92647 20.9265H9.87385C10.118 20.9265 10.3159 20.7286 10.3159 20.4844V11.6423C10.316 11.3981 10.118 11.2002 9.87385 11.2002ZM9.43176 20.0423H7.36862V12.0844H9.43176V20.0423Z" fill="white"/>
<path d="M8.10505 5.89453C6.88613 5.89453 5.89453 6.88613 5.89453 8.10505C5.89453 9.32398 6.88613 10.3156 8.10505 10.3156C9.32398 10.3156 10.3156 9.32398 10.3156 8.10505C10.3156 6.88613 9.32398 5.89453 8.10505 5.89453ZM8.10505 9.43139C7.37372 9.43139 6.77872 8.83639 6.77872 8.10505C6.77872 7.37377 7.37366 6.77872 8.10505 6.77872C8.83639 6.77872 9.43139 7.37372 9.43139 8.10505C9.43139 8.83639 8.83645 9.43139 8.10505 9.43139Z" fill="white"/>
<path d="M18.1263 11.2002C17.2483 11.2002 16.3834 11.4275 15.621 11.8508V11.6423C15.621 11.3982 15.423 11.2002 15.1789 11.2002H12.821C12.5768 11.2002 12.3789 11.3982 12.3789 11.6423V20.4844C12.3789 20.7286 12.5769 20.9265 12.821 20.9265H15.7684C16.0126 20.9265 16.2105 20.7286 16.2105 20.4844V17.3104C16.2105 16.2709 16.4405 15.0318 17.5368 15.0318C18.3549 15.0318 18.6904 15.7219 18.8081 16.5042C18.8404 16.7187 19.0263 16.8765 19.2433 16.8765C19.5156 16.8765 19.7203 16.6324 19.6783 16.3634C19.4563 14.943 18.7033 14.1476 17.5368 14.1476C16.132 14.1476 15.3263 15.3004 15.3263 17.3104V20.0423H13.2631V12.0844H14.7368V12.6657C14.7368 12.8028 14.7939 12.9367 14.9011 13.0222C15.0675 13.1549 15.2967 13.1503 15.4555 13.0229C16.2212 12.409 17.1447 12.0844 18.1263 12.0844C20.6713 12.0844 21.8105 14.2308 21.8105 16.358V20.0422H19.7473V18.5865C19.7473 18.343 19.55 18.1456 19.3066 18.1456H19.304C19.0605 18.1456 18.8632 18.343 18.8632 18.5865V20.4843C18.8632 20.7285 19.0612 20.9264 19.3053 20.9264H22.2527C22.4969 20.9264 22.6948 20.7285 22.6948 20.4843V16.358C22.6947 13.3212 20.8161 11.2002 18.1263 11.2002Z" fill="white"/>
</g>
<defs>
<clipPath id="clip0_2957_694">
<rect width="28" height="28" fill="white"/>
</clipPath>
</defs>
</svg>
