<svg width="32" height="33" viewBox="0 0 32 33" fill="none" xmlns="http://www.w3.org/2000/svg">
<g clip-path="url(#clip0_55_2147)">
<rect x="2.66797" y="1.83398" width="28" height="28" fill="white"/>
<rect x="2.66797" y="1.83398" width="28" height="28" fill="white"/>
<path d="M29.6298 0.5H2.36222C1.05822 0.5 0 1.53333 0 2.80578V30.1911C0 31.4653 1.05822 32.5 2.36222 32.5H29.6298C30.9347 32.5 32 31.4653 32 30.1911V2.80578C32 1.53333 30.9347 0.5 29.6298 0.5ZM9.49067 27.7684H4.74222V12.4978H9.49067V27.7684ZM7.11644 10.4098C5.59511 10.4098 4.36533 9.17689 4.36533 7.65689C4.36533 6.13911 5.59511 4.90622 7.11644 4.90622C8.63422 4.90622 9.86711 6.13911 9.86711 7.65689C9.86711 9.17689 8.63422 10.4098 7.11644 10.4098ZM27.2667 27.7684H22.5258V20.3427C22.5258 18.5711 22.4911 16.2933 20.0587 16.2933C17.5884 16.2933 17.212 18.2227 17.212 20.2142V27.7689H12.4676V12.4978H17.0209V14.5831H17.0858C17.7196 13.3831 19.268 12.1169 21.5773 12.1169C26.38 12.1169 27.2671 15.2787 27.2671 19.392L27.2667 27.7684Z" fill="#212121"/>
</g>
<defs>
<clipPath id="clip0_55_2147">
<rect width="32" height="32" fill="white" transform="translate(0 0.5)"/>
</clipPath>
</defs>
</svg>
