<svg width="42" height="42" viewBox="0 0 42 42" fill="none" xmlns="http://www.w3.org/2000/svg">
<path fill-rule="evenodd" clip-rule="evenodd" d="M38.5643 38.5H31.2985V27.1314C31.2985 24.4201 31.2526 20.9326 27.5233 20.9326C23.7434 20.9326 23.1663 23.8873 23.1663 26.9369V38.5H15.9081V15.1212H22.8739V18.3178H22.9734C23.9424 16.4792 26.3123 14.541 29.8472 14.541C37.2048 14.541 38.5643 19.3818 38.5643 25.6785V38.5ZM7.71617 11.9277C5.38151 11.9277 3.5 10.0401 3.5 7.7131C3.5 5.38763 5.38151 3.5 7.71617 3.5C10.0401 3.5 11.9277 5.38763 11.9277 7.7131C11.9277 10.0401 10.0401 11.9277 7.71617 11.9277ZM11.3506 38.5H4.07716V15.1212H11.3506V38.5Z" fill="#0077B5"/>
</svg>
