<svg width="46" height="49" viewBox="0 0 46 49" fill="none" xmlns="http://www.w3.org/2000/svg">
    <path opacity="0.6" d="M3.39954 23.7803V40.3905C3.39949 40.3923 3.39891 40.3941 3.39789 40.3955C3.39687 40.397 3.39544 40.3981 3.39378 40.3988C3.39213 40.3994 3.39031 40.3996 3.38856 40.3992C3.38682 40.3989 3.38521 40.398 3.38396 40.3967C3.20294 40.2081 3.02457 40.0172 2.84885 39.824C0.999626 37.7539 -0.0154794 35.0711 0.000186415 32.2954V23.847C-0.00625981 23.4059 0.154685 22.9787 0.450603 22.6516C0.746522 22.3244 1.15543 22.1216 1.59495 22.0838C1.82655 22.0695 2.05864 22.1028 2.2769 22.1815C2.49516 22.2603 2.69497 22.3829 2.86404 22.5419C3.0331 22.7008 3.16783 22.8927 3.25993 23.1057C3.35203 23.3187 3.39954 23.5482 3.39954 23.7803ZM8.99486 27.8784C8.79367 27.7507 8.59434 27.6203 8.39687 27.4873L8.39158 27.4843C8.08936 27.3677 7.75991 27.3406 7.44271 27.4065C7.05199 27.4973 6.70421 27.7193 6.45733 28.0355C6.21045 28.3517 6.07938 28.743 6.08597 29.1441V42.849C6.08597 42.8527 6.08682 42.8564 6.08845 42.8597C6.09008 42.8631 6.09244 42.866 6.09537 42.8684C7.15476 43.7117 8.27561 44.4748 9.44858 45.1513C9.45229 45.1535 9.45652 45.1547 9.46083 45.1547C9.46513 45.1547 9.46936 45.1536 9.4731 45.1514C9.47683 45.1493 9.47992 45.1462 9.48206 45.1424C9.48421 45.1387 9.48533 45.1345 9.48531 45.1302V29.0697C9.48579 28.6251 9.31143 28.1982 8.99987 27.881L8.99486 27.8784ZM13.7662 30.5043C13.3267 30.542 12.9179 30.7449 12.622 31.0721C12.3261 31.3993 12.1652 31.8264 12.1718 32.2675V46.5178C12.1718 46.5195 12.1723 46.5212 12.1732 46.5226C12.1741 46.5241 12.1755 46.5253 12.1771 46.526C13.2764 47.004 14.4063 47.4083 15.5593 47.7361C15.5607 47.7365 15.5622 47.7366 15.5636 47.7363C15.565 47.7361 15.5663 47.7355 15.5675 47.7347C15.5686 47.7338 15.5695 47.7327 15.5701 47.7314C15.5708 47.7301 15.5711 47.7287 15.5711 47.7273V32.2008C15.5711 31.9687 15.5235 31.7391 15.4314 31.5261C15.3392 31.3131 15.2045 31.1213 15.0354 30.9623C14.8663 30.8034 14.6665 30.6808 14.4482 30.602C14.2299 30.5232 13.9978 30.49 13.7662 30.5043ZM19.8555 31.8299C19.416 31.8676 19.0071 32.0705 18.7112 32.3976C18.4153 32.7248 18.2543 33.1519 18.2608 33.593V48.3467C18.2608 48.3489 18.2616 48.351 18.263 48.3527C18.2644 48.3543 18.2663 48.3554 18.2684 48.3558C19.3869 48.5524 20.5165 48.6788 21.6507 48.7343C21.6519 48.7344 21.6531 48.7342 21.6543 48.7337C21.6554 48.7333 21.6565 48.7326 21.6573 48.7318C21.6582 48.7309 21.6589 48.7299 21.6594 48.7288C21.6599 48.7277 21.6601 48.7264 21.6601 48.7252V33.5266C21.6601 33.2946 21.6126 33.065 21.5205 32.852C21.4284 32.639 21.2937 32.4471 21.1246 32.2881C20.9556 32.1292 20.7557 32.0065 20.5375 31.9277C20.3192 31.8489 20.0872 31.8156 19.8555 31.8299ZM25.941 31.8299C25.5016 31.8677 25.0927 32.0706 24.7969 32.3977C24.501 32.7249 24.3401 33.152 24.3465 33.593V48.7267C24.3466 48.7279 24.3469 48.7291 24.3474 48.7303C24.3479 48.7314 24.3486 48.7324 24.3495 48.7332C24.3504 48.7341 24.3515 48.7348 24.3526 48.7352C24.3538 48.7356 24.355 48.7358 24.3562 48.7358C25.4904 48.6799 26.6199 48.5531 27.7382 48.3561C27.7404 48.3557 27.7423 48.3546 27.7437 48.3529C27.7451 48.3513 27.7459 48.3492 27.7459 48.347V33.5266C27.7458 33.2946 27.6983 33.065 27.6062 32.852C27.514 32.639 27.3793 32.4471 27.2102 32.2881C27.0411 32.1292 26.8413 32.0065 26.623 31.9277C26.4047 31.8489 26.1726 31.8156 25.941 31.8299ZM32.0239 30.5043C31.5844 30.542 31.1755 30.7449 30.8796 31.0721C30.5838 31.3993 30.4229 31.8264 30.4294 32.2675V47.7267C30.4294 47.7281 30.4297 47.7295 30.4303 47.7307C30.4309 47.732 30.4318 47.7331 30.4329 47.7339C30.434 47.7348 30.4353 47.7354 30.4367 47.7356C30.4381 47.7359 30.4395 47.7359 30.4409 47.7355C31.5938 47.4077 32.7235 47.0032 33.8226 46.5248C33.8242 46.5241 33.8256 46.523 33.8266 46.5215C33.8276 46.5201 33.8281 46.5183 33.8281 46.5166V32.1999C33.828 31.9679 33.7803 31.7384 33.6882 31.5255C33.596 31.3126 33.4612 31.1209 33.2921 30.962C33.1231 30.8032 32.9233 30.6807 32.705 30.6019C32.4868 30.5232 32.2548 30.49 32.0233 30.5043H32.0239ZM38.5689 27.4088C38.2477 27.3399 37.9132 27.3664 37.6068 27.4852H37.6048C37.4065 27.619 37.2062 27.7501 37.0038 27.8784L37.0021 27.8799C36.6894 28.197 36.5144 28.6246 36.5149 29.07V45.1584C36.5148 45.16 36.5153 45.1616 36.5161 45.163C36.5169 45.1644 36.518 45.1656 36.5194 45.1664C36.5209 45.1672 36.5224 45.1676 36.5241 45.1676C36.5257 45.1676 36.5273 45.1672 36.5287 45.1663C37.7122 44.4854 38.8428 43.7163 39.9107 42.8654C39.9118 42.8646 39.9128 42.8636 39.9134 42.8624C39.914 42.8611 39.9143 42.8597 39.9142 42.8584V29.132C39.9197 28.7344 39.7893 28.3469 39.5445 28.0336C39.2998 27.7202 38.9554 27.4998 38.5684 27.4088H38.5689ZM44.1951 22.0838C43.7556 22.1216 43.3468 22.3244 43.0509 22.6516C42.755 22.9788 42.5941 23.4059 42.6007 23.847V40.4126C42.7229 40.2853 42.8451 40.1578 42.965 40.0279C44.9137 37.9223 45.9974 35.1596 46 32.2907V23.7803C46 23.5482 45.9524 23.3185 45.8602 23.1055C45.7681 22.8925 45.6333 22.7006 45.4641 22.5416C45.2949 22.3827 45.095 22.2601 44.8767 22.1814C44.6583 22.1026 44.4262 22.0694 44.1945 22.0838H44.1951Z" fill="#212121"/>
    <path d="M22.9998 16.8274C27.7092 16.8258 32.3317 18.0952 36.3797 20.5019C40.4277 22.9085 43.7511 26.3631 45.9994 30.5011V16.4782C45.9968 13.6092 44.9132 10.8464 42.9644 8.74069C40.4044 5.9674 37.2947 3.75791 33.8335 2.25305C30.3723 0.748197 26.6355 -0.0189955 22.8613 0.000357217C19.0871 0.0197099 15.3584 0.825184 11.9128 2.36545C8.46717 3.90573 5.38026 6.147 2.84884 8.94639C0.999566 11.0164 -0.015553 13.6991 0.00018018 16.4747V30.5026C2.24826 26.3642 5.57162 22.9094 9.61964 20.5025C13.6677 18.0956 18.2903 16.8259 22.9998 16.8274Z" fill="#212121"/>
</svg>
