<svg width="92" height="27" viewBox="0 0 92 27" fill="none" xmlns="http://www.w3.org/2000/svg">
<path d="M9.10803 6.37109C12.312 6.37109 14.5083 7.88264 15.6968 9.53888V6.69407H20.7715V26.6387H15.6968V23.7216C14.5083 25.4502 12.2397 26.9617 9.07187 26.9617C4.03338 26.9617 0 22.8276 0 16.5953C0 10.3631 4.03337 6.37109 9.10803 6.37109ZM10.4 10.7998C7.69984 10.7998 5.14443 12.8152 5.14443 16.5953C5.14443 20.3755 7.69984 22.5382 10.4 22.5382C13.1724 22.5382 15.6917 20.4504 15.6917 16.6703C15.6917 12.8901 13.1776 10.7998 10.4051 10.7998H10.4Z" fill="white"/>
<path d="M25.704 0H30.7348V15.1542L37.4528 6.69473H44.0054L35.2203 16.7045L44.0751 26.6394H37.5122L30.7348 18.1437V26.6394H25.6963L25.704 0Z" fill="white"/>
<path d="M54.3587 26.9617C49.3538 26.9617 45.863 24.0471 45.646 20.3393H50.7232C50.9041 21.8509 52.3071 23.0033 54.3225 23.0033C56.3379 23.0033 57.3818 22.1015 57.3818 20.9517C57.3818 17.386 46.1137 19.6598 46.1137 12.3475C46.1137 9.03503 49.067 6.37109 53.9995 6.37109C58.8236 6.37109 61.7511 8.99886 62.0275 12.9599H57.2035C57.0588 11.4096 55.8341 10.376 53.8445 10.376C51.9738 10.376 51.0023 11.1331 51.0023 12.2855C51.0023 15.921 62.056 13.6524 62.1981 20.962C62.2058 24.3701 59.2189 26.9617 54.3587 26.9617Z" fill="white"/>
<path d="M83.985 26.9617C78.9827 26.9617 75.4894 24.0471 75.2749 20.3393H80.3444C80.5253 21.8509 81.9283 23.0033 83.9437 23.0033C85.9591 23.0033 87.0055 22.1015 87.0055 20.9517C87.0055 17.386 75.7374 19.6598 75.7374 12.3475C75.7374 9.03503 78.6882 6.37109 83.6207 6.37109C88.4447 6.37109 91.3722 8.99886 91.6487 12.9599H86.8298C86.6851 11.4096 85.463 10.376 83.4708 10.376C81.6001 10.376 80.6286 11.1331 80.6286 12.2855C80.6286 15.921 91.6797 13.6524 91.8244 20.962C91.8347 24.3701 88.8452 26.9617 83.985 26.9617Z" fill="white"/>
<path d="M66.3452 6.69434H71.3863V26.639H66.3452V6.69434Z" fill="white"/>
</svg>
