<svg width="98" height="95" viewBox="0 0 98 95" fill="none" xmlns="http://www.w3.org/2000/svg">
<g clip-path="url(#clip0_1842_99)">
<path d="M49.0001 0.222656C21.9057 0.222656 -0.0588379 18.8164 -0.0588379 41.7525C-0.0588379 55.9536 8.36281 68.4871 21.2069 75.9763C19.2217 81.0771 15.7909 87.7474 11.2984 91.4352C20.1809 88.9961 27.6762 85.3951 33.0291 81.0298C38.0359 82.4885 43.4084 83.2823 49.0001 83.2823C76.0946 83.2823 98.0591 64.6886 98.0591 41.7525C98.0594 18.816 76.0946 0.222656 49.0001 0.222656Z" fill="#41A0D7"/>
<path d="M66.0519 40.8628C82.0671 40.8628 95.05 51.8532 95.05 65.4107C95.05 73.8049 90.072 81.2135 82.48 85.6403C83.6537 88.655 85.6811 92.598 88.3369 94.7782C83.0866 93.3367 78.6559 91.2079 75.4921 88.6277C72.5328 89.4899 69.357 89.9592 66.0516 89.9592C50.0365 89.9592 37.0532 78.9688 37.0532 65.4113C37.0535 51.8535 50.0365 40.8628 66.0519 40.8628Z" fill="white"/>
<path d="M67.2758 69.5601C69.7988 69.5601 71.8442 67.509 71.8442 64.9788C71.8442 62.4486 69.7988 60.3975 67.2758 60.3975C64.7527 60.3975 62.7073 62.4486 62.7073 64.9788C62.7073 67.509 64.7527 69.5601 67.2758 69.5601Z" fill="#00558C"/>
<path d="M52.6539 69.5601C55.177 69.5601 57.2224 67.509 57.2224 64.9788C57.2224 62.4486 55.177 60.3975 52.6539 60.3975C50.1308 60.3975 48.0854 62.4486 48.0854 64.9788C48.0854 67.509 50.1308 69.5601 52.6539 69.5601Z" fill="#00558C"/>
<path d="M81.8939 69.5601C84.417 69.5601 86.4624 67.509 86.4624 64.9788C86.4624 62.4486 84.417 60.3975 81.8939 60.3975C79.3708 60.3975 77.3254 62.4486 77.3254 64.9788C77.3254 67.509 79.3708 69.5601 81.8939 69.5601Z" fill="#00558C"/>
</g>
<defs>
<clipPath id="clip0_1842_99">
<rect width="98" height="95" fill="white"/>
</clipPath>
</defs>
</svg>
