<svg width="98" height="34" viewBox="0 0 98 34" fill="none" xmlns="http://www.w3.org/2000/svg">
    <path d="M3 14.75C1.75736 14.75 0.75 15.7574 0.75 17C0.75 18.2426 1.75736 19.25 3 19.25L3 14.75ZM96.591 18.591C97.4697 17.7123 97.4697 16.2877 96.591 15.409L82.2721 1.0901C81.3934 0.211425 79.9688 0.211425 79.0901 1.0901C78.2114 1.96878 78.2114 3.3934 79.0901 4.27208L91.818 17L79.0901 29.7279C78.2114 30.6066 78.2114 32.0312 79.0901 32.9099C79.9688 33.7886 81.3934 33.7886 82.2721 32.9099L96.591 18.591ZM3 19.25L95 19.25L95 14.75L3 14.75L3 19.25Z" fill="#212121"/>
</svg>
