<svg width="30" height="30" viewBox="0 0 30 30" fill="none" xmlns="http://www.w3.org/2000/svg">
<g clip-path="url(#clip0_1473_47)">
<path d="M15 30C6.71573 30 2.09947e-07 23.2843 -5.43362e-07 15C-1.29667e-06 6.71573 6.71573 1.95701e-06 15 1.26073e-06C23.2843 5.64447e-07 30 6.71573 30 15C30 23.2843 23.2843 30 15 30Z" fill="#F0F0F0"/>
<path d="M0.932988 20.2172C0.329999 18.5922 -1.26608e-06 16.8346 -1.43292e-06 14.9998C-1.59976e-06 13.165 0.329998 11.4075 0.932987 9.78247L29.067 9.78247C29.6699 11.4075 30 13.165 30 14.9998C30 16.8346 29.6699 18.5922 29.067 20.2172L15 21.5216L0.932988 20.2172Z" fill="#0052B4"/>
<path d="M14.9999 30.0002C8.55041 30.0002 3.05227 25.9295 0.932869 20.2175L29.0669 20.2175C26.9475 25.9295 21.4494 30.0002 14.9999 30.0002Z" fill="#D80027"/>
</g>
<defs>
<clipPath id="clip0_1473_47">
<rect width="30" height="30" fill="white" transform="matrix(-1 8.40486e-08 9.09325e-08 1 30 0)"/>
</clipPath>
</defs>
</svg>
