<svg width="26" height="16" viewBox="0 0 26 16" fill="none" xmlns="http://www.w3.org/2000/svg">
    <path d="M1.00867 6.99762C0.456382 6.99762 0.00866704 7.44533 0.00866699 7.99762C0.00866694 8.5499 0.456382 8.99762 1.00867 8.99762L1.00867 6.99762ZM24.7158 8.70473C25.1063 8.3142 25.1063 7.68104 24.7158 7.29051L18.3518 0.926553C17.9613 0.536029 17.3281 0.536029 16.9376 0.926553C16.5471 1.31708 16.5471 1.95024 16.9376 2.34077L22.5945 7.99762L16.9376 13.6545C16.5471 14.045 16.5471 14.6782 16.9376 15.0687C17.3281 15.4592 17.9613 15.4592 18.3518 15.0687L24.7158 8.70473ZM1.00867 8.99762L24.0087 8.99762L24.0087 6.99762L1.00867 6.99762L1.00867 8.99762Z" fill="white"/>
</svg>
