<svg width="32" height="33" viewBox="0 0 32 33" fill="none" xmlns="http://www.w3.org/2000/svg">
<g clip-path="url(#clip0_55_2144)">
<rect y="0.5" width="32" height="32" rx="1" fill="#212121"/>
<path d="M21.8428 10.1113C21.7078 10.0415 21.5763 9.96502 21.449 9.88214C21.0787 9.63731 20.7393 9.34888 20.4379 9.02298C19.6838 8.16013 19.4022 7.28476 19.2984 6.67185H19.3026C19.2159 6.16312 19.2518 5.83398 19.2572 5.83398H15.8225V19.1158C15.8225 19.2942 15.8225 19.4704 15.815 19.6445C15.815 19.6662 15.8129 19.6862 15.8117 19.7096C15.8117 19.7191 15.8117 19.7291 15.8096 19.7391V19.7466C15.7734 20.2232 15.6206 20.6835 15.3648 21.0872C15.1089 21.4908 14.7578 21.8254 14.3423 22.0615C13.9092 22.3079 13.4194 22.4372 12.9211 22.4365C11.3209 22.4365 10.0239 21.1316 10.0239 19.52C10.0239 17.9084 11.3209 16.6034 12.9211 16.6034C13.2241 16.6032 13.5251 16.6508 13.8131 16.7447L13.8173 13.2473C12.9429 13.1344 12.0547 13.2039 11.2085 13.4515C10.3624 13.699 9.57674 14.1192 8.90112 14.6856C8.30913 15.2 7.81145 15.8138 7.43042 16.4993C7.28546 16.7493 6.7384 17.7538 6.67219 19.3842C6.6305 20.3095 6.90838 21.2682 7.0409 21.6644V21.6728C7.12423 21.9061 7.44709 22.7023 7.9733 23.3735C8.39761 23.9119 8.8989 24.3849 9.46106 24.7772V24.7689L9.46942 24.7772C11.1321 25.9072 12.9757 25.833 12.9757 25.833C13.2949 25.8201 14.3639 25.833 15.578 25.2576C16.9245 24.6197 17.6911 23.6694 17.6911 23.6694C18.1808 23.1015 18.5702 22.4544 18.8426 21.7557C19.1534 20.9387 19.2572 19.9587 19.2572 19.567V12.5207C19.2988 12.5457 19.8538 12.9128 19.8538 12.9128C19.8538 12.9128 20.6533 13.4253 21.9007 13.759C22.7956 13.9965 24.0013 14.0465 24.0013 14.0465V10.6367C23.5788 10.6825 22.721 10.5492 21.8428 10.1113Z" fill="white"/>
</g>
<defs>
<clipPath id="clip0_55_2144">
<rect width="32" height="32" fill="white" transform="translate(0 0.5)"/>
</clipPath>
</defs>
</svg>
