<svg width="28" height="28" viewBox="0 0 28 28" fill="none" xmlns="http://www.w3.org/2000/svg">
<path d="M23.8995 4.10052C21.2552 1.45622 17.7395 0 14 0C10.2605 0 6.74477 1.45622 4.10052 4.10052C1.45622 6.74477 0 10.2605 0 14C0 17.7395 1.45622 21.2552 4.10052 23.8995C6.74477 26.5438 10.2605 28 14 28C17.7395 28 21.2552 26.5438 23.8995 23.8995C26.5437 21.2552 28 17.7395 28 14C28 10.2605 26.5438 6.74477 23.8995 4.10052ZM14 27.1158C6.76791 27.1158 0.884187 21.2321 0.884187 14C0.884187 6.76791 6.76791 0.884187 14 0.884187C21.2321 0.884187 27.1158 6.76791 27.1158 14C27.1158 21.2321 21.2321 27.1158 14 27.1158Z" fill="white"/>
<g clip-path="url(#clip0_2978_238)">
<path d="M12.0997 22C10.935 22 9.8366 21.6284 8.92317 20.9253C8.75254 20.7941 8.58848 20.6506 8.43535 20.4994C7.3691 19.4456 6.83254 18.0422 6.92473 16.5475C6.99442 15.4178 7.44942 14.3287 8.2066 13.4809C9.20942 12.3581 10.5919 11.7397 12.1 11.7397C12.3591 11.7397 12.6207 11.7591 12.8782 11.7972L13.2782 11.8566V15.4062L12.6622 15.2028C12.4829 15.1434 12.2963 15.1134 12.1075 15.1134C11.6307 15.1134 11.1841 15.3003 10.85 15.6394C10.5175 15.9769 10.3385 16.4231 10.3454 16.8966C10.3544 17.5069 10.676 18.06 11.2054 18.3769C11.4491 18.5225 11.7266 18.6078 12.0085 18.6234C12.231 18.6356 12.4507 18.6066 12.6619 18.5369C13.3841 18.2984 13.8694 17.6284 13.8694 16.87L13.8725 13.1887V6H17.265L17.2691 6.46437C17.271 6.67469 17.2925 6.885 17.3332 7.08875C17.4925 7.89 17.9419 8.60406 18.5985 9.09906C19.1813 9.53875 19.8769 9.77094 20.6094 9.77094C20.6266 9.77094 20.6266 9.77094 20.7832 9.78187L21.2191 9.8125V12.6875V13.1562L21.0629 13.1559H20.7513C20.7488 13.1559 20.7463 13.1559 20.7435 13.1559H20.5938C20.5932 13.1559 20.5922 13.1559 20.5913 13.1559C19.6879 13.1559 18.8413 12.9837 18.0022 12.6297C17.7522 12.5241 17.5088 12.4034 17.2738 12.2688L17.2844 16.8878C17.2788 18.2541 16.7388 19.5356 15.7641 20.4991C14.9732 21.2806 13.975 21.78 12.8775 21.9425C12.6216 21.9806 12.36 22 12.0997 22V22ZM12.0997 12.6772C10.8625 12.6772 9.72817 13.1844 8.90567 14.1053C8.28817 14.7969 7.91692 15.6847 7.86004 16.605C7.78504 17.8253 8.22317 18.9716 9.0941 19.8322C9.22004 19.9566 9.35473 20.0744 9.49473 20.1822C10.2429 20.7581 11.1438 21.0625 12.0997 21.0625C12.3141 21.0625 12.5294 21.0466 12.7404 21.0153C13.6394 20.8822 14.4572 20.4731 15.1054 19.8325C15.9016 19.0456 16.3425 17.9997 16.3472 16.8872L16.3325 10.4375L17.0897 11.0216C17.4807 11.3231 17.9107 11.5737 18.3672 11.7666C18.9913 12.03 19.6204 12.1762 20.2813 12.2109V10.6969C19.4644 10.6356 18.6929 10.3453 18.0338 9.84812C17.1932 9.21437 16.6179 8.29937 16.4135 7.27219C16.3916 7.16187 16.3738 7.05031 16.3607 6.93781H14.8097V13.1891L14.8066 16.8703C14.8066 18.0338 14.0629 19.0613 12.9557 19.4269C12.6329 19.5334 12.2969 19.5778 11.9569 19.5594C11.5238 19.5356 11.0975 19.4047 10.7238 19.1812C9.91348 18.6966 9.42129 17.8475 9.40754 16.9103C9.39692 16.1841 9.6716 15.4991 10.1816 14.9812C10.6932 14.4619 11.3769 14.1759 12.1069 14.1759C12.185 14.1759 12.2625 14.1794 12.34 14.1859V12.6838C12.26 12.6794 12.1797 12.6772 12.0997 12.6772V12.6772Z" fill="white"/>
</g>
<defs>
<clipPath id="clip0_2978_238">
<rect width="16" height="16" fill="white" transform="translate(6 6)"/>
</clipPath>
</defs>
</svg>
