<svg width="42" height="42" viewBox="0 0 42 42" fill="none" xmlns="http://www.w3.org/2000/svg">
<g clip-path="url(#clip0_64_462)">
<path d="M13.2082 37.9942C29.058 37.9942 37.7248 24.9132 37.7248 13.5721C37.7248 13.201 37.7248 12.8298 37.7015 12.4619C39.3878 11.2464 40.8434 9.74146 42 8.01761C40.428 8.71215 38.7604 9.16795 37.0528 9.36979C38.8508 8.29605 40.1963 6.60838 40.8389 4.62059C39.1471 5.62097 37.2962 6.32599 35.366 6.7052C34.0669 5.32926 32.3489 4.41817 30.4777 4.11293C28.6064 3.80768 26.6864 4.1253 25.0146 5.01663C23.3429 5.90796 22.0126 7.32331 21.2298 9.04364C20.4469 10.764 20.2551 12.6934 20.6839 14.5333C17.258 14.3623 13.9064 13.4755 10.8468 11.9305C7.78722 10.3855 5.08801 8.21674 2.92443 5.56513C1.8214 7.45425 1.48265 9.69113 1.97714 11.8203C2.47163 13.9495 3.76218 15.8109 5.58603 17.0255C4.22417 16.9797 2.89302 16.6104 1.70342 15.9484V16.0578C1.70319 18.0373 2.38955 19.9562 3.64635 21.4896C4.90314 23.0229 6.65318 24.0767 8.60029 24.4724C7.33101 24.8168 5.99936 24.8667 4.7077 24.6183C5.25763 26.3248 6.32944 27.8173 7.77312 28.887C9.21681 29.9567 10.9601 30.5499 12.759 30.5837C9.70483 32.9664 5.93538 34.2573 2.05608 34.2492C1.36897 34.2496 0.682424 34.2098 0 34.1299C3.94006 36.651 8.52532 37.989 13.2082 37.9843" fill="#1DA1F2"/>
</g>
<defs>
<clipPath id="clip0_64_462">
<rect width="42" height="42" fill="white"/>
</clipPath>
</defs>
</svg>
