<svg width="28" height="28" viewBox="0 0 28 28" fill="none" xmlns="http://www.w3.org/2000/svg">
<g clip-path="url(#clip0_2957_663)">
<path d="M23.8995 4.10052C21.2552 1.45622 17.7395 0 14 0C10.2605 0 6.74477 1.45622 4.10052 4.10052C1.45622 6.74477 0 10.2605 0 14C0 17.7395 1.45622 21.2552 4.10052 23.8995C6.74477 26.5438 10.2605 28 14 28C17.7395 28 21.2552 26.5438 23.8995 23.8995C26.5437 21.2552 28 17.7395 28 14C28 10.2605 26.5438 6.74477 23.8995 4.10052ZM14 27.1158C6.76791 27.1158 0.884187 21.2321 0.884187 14C0.884187 6.76791 6.76791 0.884187 14 0.884187C21.2321 0.884187 27.1158 6.76791 27.1158 14C27.1158 21.2321 21.2321 27.1158 14 27.1158Z" fill="white"/>
<path d="M23.8631 8.88034C23.7301 8.76527 23.5373 8.74564 23.3778 8.81963C23.149 8.92573 22.9153 9.01891 22.6774 9.09892C22.9133 8.77714 23.1017 8.41959 23.2346 8.03623C23.2894 7.87813 23.2621 7.69848 23.1488 7.57538C23.007 7.42149 22.7811 7.38912 22.6039 7.49007C21.9578 7.85828 21.2609 8.10837 20.5296 8.2348C19.7116 7.484 18.6592 7.07324 17.5413 7.07324C15.2273 7.07324 13.3223 8.85835 13.1309 11.1237C12.6528 11.0491 11.7175 10.7824 11.4939 10.7092C9.87618 10.1583 8.41892 9.18817 7.27885 7.9034C7.21126 7.82722 7.12223 7.77056 7.0221 7.75224C6.82085 7.71549 6.62993 7.8171 6.54385 7.98953C6.26052 8.55735 6.1168 9.16794 6.1168 9.80434C6.1168 10.6844 6.39232 11.5139 6.8886 12.1958C6.73395 12.1668 6.56934 12.2211 6.46139 12.3539C6.39932 12.4302 6.36825 12.5271 6.36459 12.6254C6.36295 12.6703 6.36147 12.7153 6.36147 12.7606C6.36147 13.9538 6.9078 15.0381 7.79078 15.7459C7.72981 15.7872 7.6784 15.8442 7.64296 15.9145C7.5903 16.0186 7.58445 16.141 7.61923 16.2523C8.00489 17.486 8.96301 18.4255 10.1508 18.8107C9.07496 19.4656 7.83049 19.8188 6.559 19.8188C6.44673 19.8188 6.33117 19.8159 6.21562 19.8102C5.99435 19.8001 5.79589 19.9546 5.75783 20.179C5.72677 20.3622 5.82138 20.5453 5.98134 20.6397C7.60654 21.5983 9.46679 22.1049 11.362 22.1049C13.624 22.1049 15.7785 21.4004 17.5749 20.0965C17.7965 19.9356 17.821 19.6141 17.6274 19.4204L17.6272 19.4203C17.4712 19.2643 17.2259 19.2475 17.0472 19.3769C15.4463 20.5362 13.4812 21.2206 11.362 21.2206C10.1742 21.2206 9.00157 21.0036 7.90273 20.5857C9.2318 20.3523 10.4881 19.7759 11.5345 18.9061C11.6609 18.801 11.7275 18.6348 11.6956 18.4735C11.6549 18.2675 11.4784 18.1219 11.2742 18.1161C10.1976 18.0856 9.2365 17.4908 8.72036 16.5816C8.96651 16.5698 9.21288 16.5361 9.45536 16.4809C9.64031 16.4388 9.78999 16.291 9.81406 16.1029C9.84299 15.8763 9.69735 15.6695 9.48128 15.6163C8.32645 15.3319 7.47715 14.3933 7.28613 13.2507C7.62464 13.3301 7.9765 13.3651 8.32776 13.3544C8.54449 13.3479 8.72791 13.1844 8.75389 12.9625C8.77434 12.7878 8.68153 12.6185 8.53131 12.5269C7.57269 11.9427 7.00088 10.9261 7.00088 9.80439C7.00088 9.53019 7.03495 9.26205 7.10254 9.0024C8.26153 10.1483 9.66815 11.0216 11.2088 11.5464C11.2229 11.5512 12.7451 12.0251 13.3217 12.0274C13.3593 12.0284 13.5391 12.0363 13.5394 12.0363C13.7247 12.0438 13.9043 11.9314 13.9743 11.745C13.9944 11.6915 14.0018 11.634 14.0004 11.5769C13.9998 11.5512 13.9991 11.5254 13.9991 11.4995C13.9991 9.54643 15.5881 7.95748 17.5412 7.95748C18.4975 7.95748 19.3939 8.3333 20.0654 9.01558C20.1626 9.1144 20.2996 9.16307 20.4369 9.14404C20.8869 9.08164 21.3259 8.97861 21.7515 8.83604C21.5249 9.08454 21.2579 9.29744 20.9584 9.46516C20.7565 9.5782 20.6708 9.8238 20.766 10.0347L20.7725 10.0492C20.8504 10.2215 21.029 10.3251 21.2174 10.3073C21.5831 10.2724 21.9438 10.2122 22.2977 10.1273C21.9846 10.4502 21.6403 10.7435 21.2669 11.0051C21.145 11.0905 21.075 11.2319 21.0801 11.3805L21.081 11.4085C21.082 11.4387 21.0832 11.469 21.0832 11.4995V11.5395C21.073 14.0163 20.1283 16.2784 18.5857 17.9923C18.4281 18.1673 18.4379 18.4362 18.6045 18.6027C18.7857 18.7839 19.0814 18.7751 19.2528 18.5846C20.9859 16.6591 21.9448 14.1997 21.9672 11.5899C22.7559 11.0024 23.4216 10.2842 23.9483 9.45204C24.0642 9.26911 24.0317 9.02613 23.8631 8.88034Z" fill="white"/>
</g>
<defs>
<clipPath id="clip0_2957_663">
<rect width="28" height="28" fill="white"/>
</clipPath>
</defs>
</svg>
