<svg width="31" height="31" viewBox="0 0 31 31" fill="none" xmlns="http://www.w3.org/2000/svg">
<g clip-path="url(#clip0_1473_30)">
<path d="M0.500001 15.5C0.500001 23.7843 7.21573 30.5 15.5 30.5C23.7843 30.5 30.5 23.7843 30.5 15.5C30.5 7.21573 23.7843 0.5 15.5 0.500001C7.21573 0.500001 0.5 7.21573 0.500001 15.5Z" fill="#F0F0F0"/>
<path d="M24.6318 3.60077C23.0988 2.4225 21.332 1.53405 19.4125 1.01672L19.4125 8.82012L24.6318 3.60077Z" fill="#0052B4"/>
<path d="M19.4125 29.9832C21.332 29.4659 23.0988 28.5774 24.6318 27.3992L19.4125 22.1799L19.4125 29.9832Z" fill="#0052B4"/>
<path d="M11.5869 1.01672C9.6675 1.53411 7.9006 2.42256 6.36767 3.60077L11.5869 8.81995L11.5869 1.01672Z" fill="#0052B4"/>
<path d="M27.3988 24.6323C28.5771 23.0993 29.4655 21.3324 29.9829 19.413L22.1796 19.413L27.3988 24.6323Z" fill="#0052B4"/>
<path d="M3.60064 6.36768C2.42238 7.90066 1.53393 9.66756 1.01654 11.587L8.81982 11.587L3.60064 6.36768Z" fill="#0052B4"/>
<path d="M29.9829 11.5869C29.4655 9.6675 28.5771 7.90061 27.3989 6.36768L22.1796 11.5869L29.9829 11.5869Z" fill="#0052B4"/>
<path d="M1.01654 19.4131C1.53393 21.3325 2.42238 23.0994 3.60059 24.6323L8.81982 19.4131L1.01654 19.4131Z" fill="#0052B4"/>
<path d="M11.5869 22.1799L6.36762 27.3992C7.90055 28.5774 9.6675 29.4659 11.5869 29.9832L11.5869 22.1799Z" fill="#0052B4"/>
<path d="M17.4565 30.373L17.4565 17.4566L17.4565 17.4566L30.373 17.4566C30.4564 16.8161 30.5 16.1631 30.5 15.5C30.5 14.8368 30.4564 14.1839 30.373 13.5435L17.4566 13.5435L17.4566 13.5435L17.4566 0.626973C16.8161 0.543594 16.1631 0.500001 15.5 0.500001C14.8368 0.500001 14.1839 0.543594 13.5435 0.626973L13.5435 13.5434L13.5435 13.5434L0.626973 13.5434C0.543593 14.1839 0.500001 14.8368 0.500001 15.5C0.500001 16.1631 0.543536 16.8161 0.626973 17.4565L13.5434 17.4565L13.5434 17.4565L13.5434 30.373C14.1839 30.4564 14.8368 30.5 15.5 30.5C16.1631 30.5 16.8161 30.4564 17.4565 30.373Z" fill="#D80027"/>
<path d="M11.5869 19.4131L4.89334 26.1066C5.20108 26.4145 5.52281 26.7081 5.85633 26.9883L11.5869 21.2577L11.5869 19.4131L11.5869 19.4131Z" fill="#D80027"/>
<path d="M11.5869 11.5869L11.5869 11.5868L4.89346 4.89331C4.58561 5.20105 4.29193 5.52278 4.01174 5.8563L9.74244 11.5869L11.5869 11.5869Z" fill="#D80027"/>
<path d="M19.4132 11.587L19.4134 11.587L26.1069 4.89344C25.7992 4.58559 25.4775 4.29191 25.1439 4.01172L19.4133 9.74236L19.4133 11.587L19.4132 11.587Z" fill="#D80027"/>
<path d="M19.4125 19.413L26.1061 26.1065C26.414 25.7988 26.7077 25.4771 26.9878 25.1436L21.2571 19.413L19.4125 19.413Z" fill="#D80027"/>
</g>
<defs>
<clipPath id="clip0_1473_30">
<rect width="30" height="30" fill="white" transform="translate(30.5 0.5) rotate(90)"/>
</clipPath>
</defs>
</svg>
